<svg xmlns="http://www.w3.org/2000/svg" version="1" viewBox="0 0 1200 500" overflow="scroll">
    <style>.s0 {
        fill: #000;
    }</style>
    <title>LaTeX logo</title>
    <path d="m285.7 238c0 0-11.2 0-11.2 0-4.5 45.9-10.8 101.7-90 101.7 0 0-36.4 0-36.4 0-21.1 0-22-3.1-22-18 0 0 0-238.9 0-238.9 0-15.3 0-21.6 42.3-21.6 0 0 14.9 0 14.9 0 0 0 0-13.5 0-13.5C166.9 49 126.4 49 108 49 90.4 49 55.3 49 40 47.7c0 0 0 13.5 0 13.5 0 0 10.4 0 10.4 0 34.7 0 35.6 5 35.6 21.2 0 0 0 236.3 0 236.3 0 16.2-0.9 21.2-35.5 21.2 0 0-10.3 0-10.3 0 0 0 0 14 0 14 0 0 233.6 0 233.6 0 0 0 12.2-115.6 12.2-115.6zM278.1 47.2"
          fill="#000"></path>
    <path d="m278.1 47.2c-1.8-5.4-2.7-7.2-8.5-7.2-5.8 0-7.2 1.8-9 7.2 0 0-72.4 183.6-72.4 183.6-3.1 7.7-8.5 21.6-36.4 21.6 0 0 0 11.3 0 11.3 0 0 69.8 0 69.8 0 0 0 0-11.2 0-11.2-13.9 0-22.5-6.3-22.5-15.3 0-2.2 0.5-3.1 1.4-6.3 0 0 15.3-38.7 15.3-38.7 0 0 89.1 0 89.1 0 0 0 18 45.9 18 45.9 0.9 1.8 1.8 4.1 1.8 5.4 0 9-17.1 9-25.6 9 0 0 0 11.3 0 11.3 0 0 88.7 0 88.7 0 0 0 0-11.2 0-11.2 0 0-6.3 0-6.3 0-21.1 0-23.4-3.1-26.5-12.1 0 0-76.5-193-76.5-193zm-18 32c0 0 40.1 101.7 40.1 101.7 0 0-80.1 0-80.1 0 0 0 40.1-101.7 40.1-101.7z"
          fill="#000"></path>
    <path d="m638.5 50.4c0 0-274 0-274 0 0 0-8.1 100.8-8.1 100.8 0 0 10.8 0 10.8 0 6.3-72.4 13.1-87.3 81-87.3 8.1 0 19.8 0 24.3 0.9 9.5 1.8 9.5 6.8 9.5 17.1 0 0 0 236.3 0 236.3 0 15.3 0 21.6-47.2 21.6 0 0-18 0-18 0 0 0 0 14 0 14 18.5-1.3 63.9-1.3 84.6-1.3 20.7 0 67.1 0 85.5 1.4 0 0 0-13.9 0-13.9 0 0-18 0-18 0-47.2 0-47.2-6.3-47.2-21.6 0 0 0-236.2 0-236.2 0-9 0-15.3 8.1-17.1 5-0.9 17.1-0.9 25.7-0.9 67.5 0 74.3 14.9 80.6 87.3 0 0 11.3 0 11.3 0 0 0-8.5-100.8-8.5-100.8z"
          fill="#000"></path>
    <path d="m879.7 339.3c0 0-11.2 0-11.2 0-11.2 68.9-21.6 101.7-98.5 101.7 0 0-59.4 0-59.4 0-21.1 0-22-3.1-22-18 0 0 0-119.7 0-119.7 0 0 40.1 0 40.1 0 43.7 0 48.6 14.4 48.6 52.7 0 0 11.3 0 11.3 0 0 0 0-118.8 0-118.8 0 0-11.2 0-11.2 0 0 38.3-4.9 52.2-48.6 52.2 0 0-40 0-40 0 0 0 0-107.5 0-107.5 0-14.8 0.9-18 22.1-18 0 0 57.6 0 57.6 0 68.9 0 80.6 24.8 87.8 87.3 0 0 11.3 0 11.3 0 0 0-12.6-100.8-12.6-100.8 0 0-252 0-252 0 0 0 0 13.5 0 13.5 0 0 10.4 0 10.4 0 34.7 0 35.6 5 35.6 21.2 0 0 0 234.9 0 234.9 0 16.2-0.9 21.2-35.5 21.2 0 0-10.3 0-10.3 0 0 0 0 14 0 14 0 0 258.3 0 258.3 0 0 0 18.9-115.6 18.9-115.6z"
          fill="#000"></path>
    <path d="m1015.2 180.4c0 0 61.7-90 61.7-90 9.5-14.4 24.8-28.8 64.8-29.2 0 0 0-13.5 0-13.5 0 0-107.1 0-107.1 0 0 0 0 13.5 0 13.5 18 0.5 27.9 10.4 27.9 20.7 0 4.5-0.9 5.4-4 10.4 0 0-51.3 75.6-51.3 75.6 0 0-57.6-86.4-57.6-86.4-0.9-1.3-3.1-4.9-3.1-6.7 0-5.4 9.9-13 28.8-13.5 0 0 0-13.5 0-13.5C959.8 49 927 49 909.9 49 895.9 49 868 48.6 851.4 47.7c0 0 0 13.5 0 13.5 0 0 8.6 0 8.6 0 24.8 0 33.3 3.2 41.9 15.8 0 0 82.4 124.7 82.4 124.7 0 0-73.3 108.5-73.3 108.5-6.3 9-19.8 29.7-64.8 29.7 0 0 0 14 0 14 0 0 107.1 0 107.1 0 0 0 0-13.9 0-13.9-20.7-0.4-28.3-12.6-28.3-20.7 0-4 1.4-5.8 4.5-10.8 0 0 63.5-94 63.5-94 0 0 71.1 107.1 71.1 107.1 0.9 1.8 2.3 3.6 2.3 5 0 5.4-9.9 13.1-29.2 13.5 0 0 0 14 0 14 15.8-1.3 48.6-1.3 65.3-1.3 18.9 0 39.6 0.5 58.5 1.4 0 0 0-13.9 0-13.9 0 0-8.5 0-8.5 0-23.4 0-32.8-2.2-42.3-16.2 0 0-94.5-143.1-94.5-143.1z"
          fill="#000"></path>
</svg>